{"title":"Australia's Next Top Model - S10E04","uid":16008622,"size":453495190,"categoryP":"video","categoryS":"tv_shows","magnet":"?xt=urn:btih:4fd47a4f34412a998688e36234c8b685df0c6cf1&amp;dn=Australia%27s+Next+Top+Model+-+S10E04&amp;tr=udp%3A%2F%2Ftracker.leechers-paradise.org%3A6969&amp;tr=udp%3A%2F%2Fzer0day.ch%3A1337&amp;tr=udp%3A%2F%2Fopen.demonii.com%3A1337&amp;tr=udp%3A%2F%2Ftracker.coppersurfer.tk%3A6969&amp;tr=udp%3A%2F%2Fexodus.desync.com%3A6969","seeders":54,"leechers":7,"uploader":"Bullrout","files":1,"time":1476208222,"description":"Australia's Next Top Model - S10E04\r\n\r\nIt's makeover week for the top ten models. They have to learn how to work their new looks and huge makeovers. And with no challenge or challenge score it all comes down to the one photo shoot.\r\n\r\nComplete name                            : Australia's Next Top Model - S10E04.mp4\r\nFormat                                   : MPEG-4\r\nFormat profile                           : Base Media / Version 2\r\nCodec ID                                 : mp42 (mp42/isom/avc1)\r\nFile size                                : 432 MiB\r\nDuration                                 : 54 min 42 s\r\nOverall bit rate mode                    : Variable\r\nOverall bit rate                         : 1 105 kb/s\r\n\r\nVideo\r\nID                                       : 2\r\nFormat                                   : AVC\r\nFormat/Info                              : Advanced Video Codec\r\nFormat profile                           :   \r\nFormat settings, CABAC                   : Yes\r\nFormat settings, ReFrames                : 3 frames\r\nCodec ID                                 : avc1\r\nCodec ID/Info                            : Advanced Video Coding\r\nDuration                                 : 54 min 42 s\r\nBit rate mode                            : Variable\r\nBit rate                                 : 974 kb/s\r\nMaximum bit rate                         : 1 000 kb/s\r\nWidth                                    : 720 pixels\r\nHeight                                   : 404 pixels\r\nDisplay aspect ratio                     : 16:9\r\nOriginal display aspect ratio            : 16:9\r\nFrame rate mode                          : Constant\r\nFrame rate                               : 25.000 FPS\r\nStandard                                 : PAL\r\nColor space                              : YUV\r\nChroma subsampling                       : 4:2:0\r\nBit depth                                : 8 bits\r\nScan type                                : Progressive\r\nBits/(Pixel*Frame)                       : 0.134\r\nStream size                              : 381 MiB (88%)\r\nWriting library                          : x264 core 112\r\nColor range                              : Limited\r\nColor primaries                          : BT.601 PAL\r\nTransfer characteristics                 : BT.470 System B, BT.470 System G\r\nMatrix coefficients                      : BT.601\r\n\r\nAudio\r\nID                                       : 1\r\nFormat                                   : AAC\r\nFormat/Info                              : Advanced Audio Codec\r\nFormat profile                           : LC\r\nCodec ID                                 : 40\r\nDuration                                 : 54 min 42 s\r\nBit rate mode                            : Variable\r\nBit rate                                 : 128 kb/s\r\nMaximum bit rate                         : 576 kb/s\r\nChannel(s)                               : 2 channels\r\nChannel positions                        : Front: L R\r\nSampling rate                            : 48.0 kHz\r\nFrame rate                               : 46.875 FPS (1024 spf)\r\nCompression mode                         : Lossy\r\nStream size                              : 50.1 MiB (12%)","torrent":{"xt":"urn:btih:4fd47a4f34412a998688e36234c8b685df0c6cf1","amp;dn":"Australia%27s+Next+Top+Model+-+S10E04","amp;tr":["udp%3A%2F%2Ftracker.leechers-paradise.org%3A6969","udp%3A%2F%2Fzer0day.ch%3A1337","udp%3A%2F%2Fopen.demonii.com%3A1337","udp%3A%2F%2Ftracker.coppersurfer.tk%3A6969","udp%3A%2F%2Fexodus.desync.com%3A6969"],"infoHash":"4fd47a4f34412a998688e36234c8b685df0c6cf1","infoHashBuffer":{"type":"Buffer","data":[79,212,122,79,52,65,42,153,134,136,227,98,52,200,182,133,223,12,108,241]},"announce":[],"urlList":[]}}